<svg xmlns="http://www.w3.org/2000/svg" viewBox="0 0 192 197" width="192" height="197" font-family="Verdana, 'Segoe UI', -apple-system, sans-serif">
  <rect x="0" y="0" width="192" height="197" fill="#fff"/>
  <line x1="24.0" y1="33.5" x2="24.0" y2="176.5" stroke="#9a9a9a" stroke-width="1"/>
  <line x1="24.0" y1="51.5" x2="40.0" y2="51.5" stroke="#9a9a9a" stroke-width="1"/>
  <line x1="24.0" y1="76.5" x2="40.0" y2="76.5" stroke="#9a9a9a" stroke-width="1"/>
  <line x1="24.0" y1="176.5" x2="40.0" y2="176.5" stroke="#9a9a9a" stroke-width="1"/>
  <line x1="48.0" y1="83.5" x2="48.0" y2="151.5" stroke="#9a9a9a" stroke-width="1"/>
  <line x1="48.0" y1="101.5" x2="64.0" y2="101.5" stroke="#9a9a9a" stroke-width="1"/>
  <line x1="48.0" y1="151.5" x2="64.0" y2="151.5" stroke="#9a9a9a" stroke-width="1"/>
  <line x1="72.0" y1="108.5" x2="72.0" y2="126.5" stroke="#9a9a9a" stroke-width="1"/>
  <line x1="72.0" y1="126.5" x2="88.0" y2="126.5" stroke="#9a9a9a" stroke-width="1"/>
  <path d="M16.0,20.5 h6 l1.6,2 h-7.6 z" fill="#e0b24e" stroke="#bf8f2a" stroke-width="0.8"/>
  <rect x="16.0" y="22.9" width="17" height="10.4" rx="1.6" fill="#f4cd6b" stroke="#bf8f2a" stroke-width="0.9"/>
  <text x="39.0" y="26.5" font-size="11.5" fill="#1a1a1a" font-weight="700" dominant-baseline="central">wwwroot</text>
  <path d="M40.0,45.5 h6 l1.6,2 h-7.6 z" fill="#e0b24e" stroke="#bf8f2a" stroke-width="0.8"/>
  <rect x="40.0" y="47.9" width="17" height="10.4" rx="1.6" fill="#f4cd6b" stroke="#bf8f2a" stroke-width="0.9"/>
  <text x="63.0" y="51.5" font-size="11.5" fill="#1a1a1a" dominant-baseline="central">assets</text>
  <path d="M40.0,70.5 h6 l1.6,2 h-7.6 z" fill="#e0b24e" stroke="#bf8f2a" stroke-width="0.8"/>
  <rect x="40.0" y="72.9" width="17" height="10.4" rx="1.6" fill="#f4cd6b" stroke="#bf8f2a" stroke-width="0.9"/>
  <text x="63.0" y="76.5" font-size="11.5" fill="#1a1a1a" dominant-baseline="central">protected</text>
  <path d="M64.0,95.5 h6 l1.6,2 h-7.6 z" fill="#e0b24e" stroke="#bf8f2a" stroke-width="0.8"/>
  <rect x="64.0" y="97.9" width="17" height="10.4" rx="1.6" fill="#f4cd6b" stroke="#bf8f2a" stroke-width="0.9"/>
  <text x="87.0" y="101.5" font-size="11.5" fill="#1a1a1a" dominant-baseline="central">pages</text>
  <path d="M88.0,119.5 h8.3 l4.2,4.2 v10.8 h-12.5 z" fill="#ffffff" stroke="#8f8f8f" stroke-width="0.9"/>
  <path d="M96.3,119.5 v4.2 h4.2 z" fill="#b8d0ea" stroke="#8f8f8f" stroke-width="0.8"/>
  <text x="111.0" y="126.5" font-size="11.5" fill="#1a1a1a" dominant-baseline="central">Home.page</text>
  <path d="M64.0,145.5 h6 l1.6,2 h-7.6 z" fill="#e0b24e" stroke="#bf8f2a" stroke-width="0.8"/>
  <rect x="64.0" y="147.9" width="17" height="10.4" rx="1.6" fill="#f4cd6b" stroke="#bf8f2a" stroke-width="0.9"/>
  <text x="87.0" y="151.5" font-size="11.5" fill="#1a1a1a" dominant-baseline="central">runtime</text>
  <path d="M40.0,169.5 h8.3 l4.2,4.2 v10.8 h-12.5 z" fill="#ffffff" stroke="#8f8f8f" stroke-width="0.9"/>
  <path d="M48.3,169.5 v4.2 h4.2 z" fill="#c9b8ea" stroke="#8f8f8f" stroke-width="0.8"/>
  <text x="63.0" y="176.5" font-size="11.5" fill="#1a1a1a" dominant-baseline="central">index.php</text>
</svg>