<svg xmlns="http://www.w3.org/2000/svg" viewBox="0 0 694 1333" width="694" height="1333" font-family="Verdana, 'Segoe UI', -apple-system, sans-serif">
  <defs>
    <filter id="ds" x="-25%" y="-30%" width="150%" height="170%">
      <feDropShadow dx="0.7" dy="1.0" stdDeviation="0.8" flood-color="#000" flood-opacity="0.22"/>
    </filter>
    <marker id="arrow" viewBox="0 0 10 10" refX="8.5" refY="5" markerWidth="7" markerHeight="7" orient="auto-start-reverse">
      <path d="M0,0 L10,5 L0,10 z" fill="#2f2f2f"/>
    </marker>
  </defs>
  <rect x="0" y="0" width="694" height="1333" fill="#fff"/>
  <rect x="172.0" y="12" width="350" height="86" rx="6" fill="#fbfbf7" stroke="#8a8a8a" stroke-width="1" filter="url(#ds)"/>
  <text x="347.0" y="29" font-size="10.5" font-weight="600" fill="#333" text-anchor="middle">Legend</text>
  <rect x="192.0" y="45.0" width="17" height="10" rx="5" fill="#f4e2b0" stroke="#a9862f" stroke-width="0.9"/>
  <text x="215.0" y="50.0" font-size="8.9" fill="#333" dominant-baseline="central">onPreRunPage hook</text>
  <rect x="355.0" y="45.0" width="17" height="10" rx="5" fill="#ffffff" stroke="#2f2f2f" stroke-width="0.9"/>
  <text x="378.0" y="50.0" font-size="8.9" fill="#333" dominant-baseline="central">raised on all controls</text>
  <rect x="192.0" y="62.0" width="17" height="10" rx="5" fill="#c6e6c6" stroke="#2f2f2f" stroke-width="0.9"/>
  <text x="215.0" y="67.0" font-size="8.9" fill="#333" dominant-baseline="central">page event</text>
  <rect x="355.0" y="62.0" width="17" height="10" rx="5" fill="#f3d3d3" stroke="#8f2a2a" stroke-width="0.9" stroke-dasharray="4 2.5"/>
  <text x="378.0" y="67.0" font-size="8.9" fill="#333" dominant-baseline="central">postback &amp; callback only</text>
  <text x="347.0" y="86.0" font-size="8.6" fill="#666" text-anchor="middle" font-style="italic">A normal (first) request skips the red boxes.</text>
  <rect x="20.0" y="394.7" width="250.0" height="124.1" rx="9" fill="#fbeeee" stroke="#8f2a2a" stroke-width="1.3" stroke-dasharray="6 4"/>
  <rect x="20.0" y="649.9" width="250.0" height="231.3" rx="9" fill="#fbeeee" stroke="#8f2a2a" stroke-width="1.3" stroke-dasharray="6 4"/>
  <circle cx="145.0" cy="113" r="6" fill="#2f2f2f"/>
  <line x1="145.0" y1="119.0" x2="145.0" y2="139.0" stroke="#2f2f2f" stroke-width="1.4" marker-end="url(#arrow)"/>
  <line x1="145.0" y1="166.0" x2="145.0" y2="217.3" stroke="#2f2f2f" stroke-width="1.4" marker-end="url(#arrow)"/>
  <line x1="145.0" y1="244.3" x2="145.0" y2="289.3" stroke="#2f2f2f" stroke-width="1.4" marker-end="url(#arrow)"/>
  <line x1="145.0" y1="316.3" x2="145.0" y2="348.7" stroke="#2f2f2f" stroke-width="1.4" marker-end="url(#arrow)"/>
  <line x1="145.0" y1="375.7" x2="145.0" y2="423.7" stroke="#2f2f2f" stroke-width="1.4" marker-end="url(#arrow)"/>
  <line x1="145.0" y1="450.7" x2="145.0" y2="476.8" stroke="#2f2f2f" stroke-width="1.4" marker-end="url(#arrow)"/>
  <line x1="145.0" y1="503.8" x2="145.0" y2="536.2" stroke="#2f2f2f" stroke-width="1.4" marker-end="url(#arrow)"/>
  <line x1="145.0" y1="563.2" x2="145.0" y2="601.9" stroke="#2f2f2f" stroke-width="1.4" marker-end="url(#arrow)"/>
  <line x1="145.0" y1="628.9" x2="145.0" y2="678.9" stroke="#2f2f2f" stroke-width="1.4" marker-end="url(#arrow)"/>
  <line x1="145.0" y1="705.9" x2="145.0" y2="744.6" stroke="#2f2f2f" stroke-width="1.4" marker-end="url(#arrow)"/>
  <line x1="145.0" y1="771.6" x2="145.0" y2="829.2" stroke="#2f2f2f" stroke-width="1.4" marker-end="url(#arrow)"/>
  <line x1="145.0" y1="856.2" x2="145.0" y2="901.2" stroke="#2f2f2f" stroke-width="1.4" marker-end="url(#arrow)"/>
  <line x1="145.0" y1="928.2" x2="145.0" y2="960.6" stroke="#2f2f2f" stroke-width="1.4" marker-end="url(#arrow)"/>
  <line x1="145.0" y1="987.6" x2="145.0" y2="1020.0" stroke="#2f2f2f" stroke-width="1.4" marker-end="url(#arrow)"/>
  <line x1="145.0" y1="1047.0" x2="145.0" y2="1073.1" stroke="#2f2f2f" stroke-width="1.4" marker-end="url(#arrow)"/>
  <line x1="145.0" y1="1100.1" x2="145.0" y2="1126.2" stroke="#2f2f2f" stroke-width="1.4" marker-end="url(#arrow)"/>
  <line x1="145.0" y1="1153.2" x2="145.0" y2="1185.6" stroke="#2f2f2f" stroke-width="1.4" marker-end="url(#arrow)"/>
  <line x1="145.0" y1="1212.6" x2="145.0" y2="1251.3" stroke="#2f2f2f" stroke-width="1.4" marker-end="url(#arrow)"/>
  <rect x="27.0" y="398.7" width="173" height="12" fill="#fbeeee"/>
  <text x="29.0" y="406.7" font-size="9" fill="#8f2a2a" font-style="italic">only for postback &amp; callback requests</text>
  <rect x="27.0" y="653.9" width="173" height="12" fill="#fbeeee"/>
  <text x="29.0" y="661.9" font-size="9" fill="#8f2a2a" font-style="italic">only for postback &amp; callback requests</text>
  <rect x="36.0" y="140.0" width="218" height="26" rx="13.0" ry="13.0" fill="#f4e2b0" stroke="#a9862f" stroke-width="1.5" filter="url(#ds)"/>
  <text x="145.0" y="153.0" font-size="9.6" fill="#1a1a1a" font-weight="700" text-anchor="middle" dominant-baseline="central">onPreRunPage</text>
  <line x1="254.0" y1="153.0" x2="286.0" y2="153.0" stroke="#8a8a8a" stroke-width="0.9" stroke-dasharray="2.5 2"/>
  <path d="M286.0,118.7 H664.0 L674.0,128.7 V187.3 H286.0 Z" fill="#fffdf3" stroke="#9a9a8f" stroke-width="0.9" filter="url(#ds)"/>
  <path d="M664.0,118.7 V128.7 H674.0" fill="none" stroke="#9a9a8f" stroke-width="0.9"/>
  <text x="294.0" y="134.1" font-size="9.8" fill="#333" dominant-baseline="central">TPageService raises this just before the page runs, after the page is</text>
  <text x="294.0" y="146.7" font-size="9.8" fill="#333" dominant-baseline="central">created and its initial properties are set. A module attaches a handler here</text>
  <text x="294.0" y="159.3" font-size="9.8" fill="#333" dominant-baseline="central">to reach the page and its request as each page is created and processed.</text>
  <text x="294.0" y="171.9" font-size="9.8" fill="#333" dominant-baseline="central">A critical extension point. (since 4.2.0)</text>
  <rect x="36.0" y="218.3" width="218" height="26" rx="13.0" ry="13.0" fill="#c6e6c6" stroke="#2f2f2f" stroke-width="1.15" filter="url(#ds)"/>
  <text x="145.0" y="231.3" font-size="9.6" fill="#1a1a1a" text-anchor="middle" dominant-baseline="central">onPreInit</text>
  <line x1="254.0" y1="231.3" x2="286.0" y2="231.3" stroke="#8a8a8a" stroke-width="0.9" stroke-dasharray="2.5 2"/>
  <path d="M286.0,203.3 H664.0 L674.0,213.3 V259.3 H286.0 Z" fill="#fffdf3" stroke="#9a9a8f" stroke-width="0.9" filter="url(#ds)"/>
  <path d="M664.0,203.3 V213.3 H674.0" fill="none" stroke="#9a9a8f" stroke-width="0.9"/>
  <text x="294.0" y="218.7" font-size="9.8" fill="#333" dominant-baseline="central">Page construction has initialized the page properties from the page</text>
  <text x="294.0" y="231.3" font-size="9.8" fill="#333" dominant-baseline="central">configuration. The page hierarchy is not available yet. Usage: set</text>
  <text x="294.0" y="243.9" font-size="9.8" fill="#333" dominant-baseline="central">personalized themes (Theme, StyleSheetTheme).</text>
  <rect x="36.0" y="290.3" width="218" height="26" rx="13.0" ry="13.0" fill="#ffffff" stroke="#2f2f2f" stroke-width="1.15" filter="url(#ds)"/>
  <text x="145.0" y="303.3" font-size="9.6" fill="#1a1a1a" text-anchor="middle" dominant-baseline="central">onInit</text>
  <line x1="254.0" y1="303.3" x2="286.0" y2="303.3" stroke="#8a8a8a" stroke-width="0.9" stroke-dasharray="2.5 2"/>
  <path d="M286.0,275.3 H664.0 L674.0,285.3 V331.3 H286.0 Z" fill="#fffdf3" stroke="#9a9a8f" stroke-width="0.9" filter="url(#ds)"/>
  <path d="M664.0,275.3 V285.3 H674.0" fill="none" stroke="#9a9a8f" stroke-width="0.9"/>
  <text x="294.0" y="290.7" font-size="9.8" fill="#333" dominant-baseline="central">initRecursive() creates the child controls and establishes the page</text>
  <text x="294.0" y="303.3" font-size="9.8" fill="#333" dominant-baseline="central">hierarchy. onInit is raised on every control. Usage: create dynamic</text>
  <text x="294.0" y="315.9" font-size="9.8" fill="#333" dominant-baseline="central">controls.</text>
  <rect x="36.0" y="349.7" width="218" height="26" rx="13.0" ry="13.0" fill="#c6e6c6" stroke="#2f2f2f" stroke-width="1.15" filter="url(#ds)"/>
  <text x="145.0" y="362.7" font-size="9.6" fill="#1a1a1a" text-anchor="middle" dominant-baseline="central">onInitComplete</text>
  <line x1="254.0" y1="362.7" x2="286.0" y2="362.7" stroke="#8a8a8a" stroke-width="0.9" stroke-dasharray="2.5 2"/>
  <path d="M286.0,347.3 H664.0 L674.0,357.3 V378.1 H286.0 Z" fill="#fffdf3" stroke="#9a9a8f" stroke-width="0.9" filter="url(#ds)"/>
  <path d="M664.0,347.3 V357.3 H674.0" fill="none" stroke="#9a9a8f" stroke-width="0.9"/>
  <text x="294.0" y="362.7" font-size="9.8" fill="#333" dominant-baseline="central">The page hierarchy is ready. Usage: create dynamic controls.</text>
  <rect x="36.0" y="424.7" width="218" height="26" rx="13.0" ry="13.0" fill="#f3d3d3" stroke="#2f2f2f" stroke-width="1.15" filter="url(#ds)"/>
  <text x="145.0" y="437.7" font-size="9.6" fill="#1a1a1a" text-anchor="middle" dominant-baseline="central">loadPageState</text>
  <line x1="254.0" y1="437.7" x2="286.0" y2="437.7" stroke="#8a8a8a" stroke-width="0.9" stroke-dasharray="2.5 2"/>
  <path d="M286.0,422.3 H664.0 L674.0,432.3 V453.1 H286.0 Z" fill="#fffdf3" stroke="#9a9a8f" stroke-width="0.9" filter="url(#ds)"/>
  <path d="M664.0,422.3 V432.3 H674.0" fill="none" stroke="#9a9a8f" stroke-width="0.9"/>
  <text x="294.0" y="437.7" font-size="9.8" fill="#333" dominant-baseline="central">Restore the view state and the control state of the page hierarchy.</text>
  <rect x="36.0" y="477.8" width="218" height="26" rx="13.0" ry="13.0" fill="#f3d3d3" stroke="#2f2f2f" stroke-width="1.15" filter="url(#ds)"/>
  <text x="145.0" y="490.8" font-size="9.6" fill="#1a1a1a" text-anchor="middle" dominant-baseline="central">processPostData</text>
  <line x1="254.0" y1="490.8" x2="286.0" y2="490.8" stroke="#8a8a8a" stroke-width="0.9" stroke-dasharray="2.5 2"/>
  <path d="M286.0,469.1 H664.0 L674.0,479.1 V512.5 H286.0 Z" fill="#fffdf3" stroke="#9a9a8f" stroke-width="0.9" filter="url(#ds)"/>
  <path d="M664.0,469.1 V479.1 H674.0" fill="none" stroke="#9a9a8f" stroke-width="0.9"/>
  <text x="294.0" y="484.5" font-size="9.8" fill="#333" dominant-baseline="central">Controls load their post data. loadPostData() is invoked for controls that</text>
  <text x="294.0" y="497.1" font-size="9.8" fill="#333" dominant-baseline="central">implement IPostBackDataHandler.</text>
  <rect x="36.0" y="537.2" width="218" height="26" rx="13.0" ry="13.0" fill="#c6e6c6" stroke="#2f2f2f" stroke-width="1.15" filter="url(#ds)"/>
  <text x="145.0" y="550.2" font-size="9.6" fill="#1a1a1a" text-anchor="middle" dominant-baseline="central">onPreLoad</text>
  <line x1="254.0" y1="550.2" x2="286.0" y2="550.2" stroke="#8a8a8a" stroke-width="0.9" stroke-dasharray="2.5 2"/>
  <path d="M286.0,528.5 H664.0 L674.0,538.5 V571.9 H286.0 Z" fill="#fffdf3" stroke="#9a9a8f" stroke-width="0.9" filter="url(#ds)"/>
  <path d="M664.0,528.5 V538.5 H674.0" fill="none" stroke="#9a9a8f" stroke-width="0.9"/>
  <text x="294.0" y="543.9" font-size="9.8" fill="#333" dominant-baseline="central">The post data is loaded and the page state is restored. Usage: create</text>
  <text x="294.0" y="556.5" font-size="9.8" fill="#333" dominant-baseline="central">dynamic controls.</text>
  <rect x="36.0" y="602.9" width="218" height="26" rx="13.0" ry="13.0" fill="#ffffff" stroke="#2f2f2f" stroke-width="1.15" filter="url(#ds)"/>
  <text x="145.0" y="615.9" font-size="9.6" fill="#1a1a1a" text-anchor="middle" dominant-baseline="central">onLoad</text>
  <line x1="254.0" y1="615.9" x2="286.0" y2="615.9" stroke="#8a8a8a" stroke-width="0.9" stroke-dasharray="2.5 2"/>
  <path d="M286.0,587.9 H664.0 L674.0,597.9 V643.9 H286.0 Z" fill="#fffdf3" stroke="#9a9a8f" stroke-width="0.9" filter="url(#ds)"/>
  <path d="M664.0,587.9 V597.9 H674.0" fill="none" stroke="#9a9a8f" stroke-width="0.9"/>
  <text x="294.0" y="603.3" font-size="9.8" fill="#333" dominant-baseline="central">loadRecursive() runs the main request handling. onLoad is raised on every</text>
  <text x="294.0" y="615.9" font-size="9.8" fill="#333" dominant-baseline="central">control. Usage: perform work that needs the post data and the restored</text>
  <text x="294.0" y="628.5" font-size="9.8" fill="#333" dominant-baseline="central">state.</text>
  <rect x="36.0" y="679.9" width="218" height="26" rx="13.0" ry="13.0" fill="#f3d3d3" stroke="#2f2f2f" stroke-width="1.15" filter="url(#ds)"/>
  <text x="145.0" y="692.9" font-size="9.6" fill="#1a1a1a" text-anchor="middle" dominant-baseline="central">processPostData</text>
  <line x1="254.0" y1="692.9" x2="286.0" y2="692.9" stroke="#8a8a8a" stroke-width="0.9" stroke-dasharray="2.5 2"/>
  <path d="M286.0,671.2 H664.0 L674.0,681.2 V714.6 H286.0 Z" fill="#fffdf3" stroke="#9a9a8f" stroke-width="0.9" filter="url(#ds)"/>
  <path d="M664.0,671.2 V681.2 H674.0" fill="none" stroke="#9a9a8f" stroke-width="0.9"/>
  <text x="294.0" y="686.6" font-size="9.8" fill="#333" dominant-baseline="central">Dynamically created controls load their post data. loadPostData() is</text>
  <text x="294.0" y="699.2" font-size="9.8" fill="#333" dominant-baseline="central">invoked for controls that implement IPostBackDataHandler.</text>
  <rect x="36.0" y="745.6" width="218" height="26" rx="13.0" ry="13.0" fill="#f3d3d3" stroke="#2f2f2f" stroke-width="1.15" filter="url(#ds)"/>
  <text x="145.0" y="758.6" font-size="9.6" fill="#1a1a1a" text-anchor="middle" dominant-baseline="central">raiseChangedEvents</text>
  <line x1="254.0" y1="758.6" x2="286.0" y2="758.6" stroke="#8a8a8a" stroke-width="0.9" stroke-dasharray="2.5 2"/>
  <path d="M286.0,730.6 H664.0 L674.0,740.6 V786.6 H286.0 Z" fill="#fffdf3" stroke="#9a9a8f" stroke-width="0.9" filter="url(#ds)"/>
  <path d="M664.0,730.6 V740.6 H674.0" fill="none" stroke="#9a9a8f" stroke-width="0.9"/>
  <text x="294.0" y="746.0" font-size="9.8" fill="#333" dominant-baseline="central">Controls raise their data-changed events. raisePostDataChangedEvent() is</text>
  <text x="294.0" y="758.6" font-size="9.8" fill="#333" dominant-baseline="central">invoked for controls that implement IPostBackDataHandler and whose data</text>
  <text x="294.0" y="771.2" font-size="9.8" fill="#333" dominant-baseline="central">changed due to the postback.</text>
  <rect x="36.0" y="830.2" width="218" height="26" rx="13.0" ry="13.0" fill="#f3d3d3" stroke="#2f2f2f" stroke-width="1.15" filter="url(#ds)"/>
  <text x="145.0" y="843.2" font-size="9.2" fill="#1a1a1a" text-anchor="middle" dominant-baseline="central">raisePostBackEvent / processCallbackEvent</text>
  <line x1="254.0" y1="843.2" x2="286.0" y2="843.2" stroke="#8a8a8a" stroke-width="0.9" stroke-dasharray="2.5 2"/>
  <path d="M286.0,802.6 H664.0 L674.0,812.6 V883.8 H286.0 Z" fill="#fffdf3" stroke="#9a9a8f" stroke-width="0.9" filter="url(#ds)"/>
  <path d="M664.0,802.6 V812.6 H674.0" fill="none" stroke="#9a9a8f" stroke-width="0.9"/>
  <text x="294.0" y="818.0" font-size="9.8" fill="#333" dominant-baseline="central">The control responsible for the request raises its event. A postback raises</text>
  <text x="294.0" y="830.6" font-size="9.8" fill="#333" dominant-baseline="central">the postback event (raisePostBackEvent, such as a button click, on a</text>
  <text x="294.0" y="843.2" font-size="9.8" fill="#333" dominant-baseline="central">control that implements IPostBackEventHandler). A callback runs the</text>
  <text x="294.0" y="855.8" font-size="9.8" fill="#333" dominant-baseline="central">callback event through the control&#x27;s adapter instead</text>
  <text x="294.0" y="868.4" font-size="9.8" fill="#333" dominant-baseline="central">(processCallbackEvent).</text>
  <rect x="36.0" y="902.2" width="218" height="26" rx="13.0" ry="13.0" fill="#c6e6c6" stroke="#2f2f2f" stroke-width="1.15" filter="url(#ds)"/>
  <text x="145.0" y="915.2" font-size="9.6" fill="#1a1a1a" text-anchor="middle" dominant-baseline="central">onLoadComplete</text>
  <line x1="254.0" y1="915.2" x2="286.0" y2="915.2" stroke="#8a8a8a" stroke-width="0.9" stroke-dasharray="2.5 2"/>
  <path d="M286.0,899.8 H664.0 L674.0,909.8 V930.6 H286.0 Z" fill="#fffdf3" stroke="#9a9a8f" stroke-width="0.9" filter="url(#ds)"/>
  <path d="M664.0,899.8 V909.8 H674.0" fill="none" stroke="#9a9a8f" stroke-width="0.9"/>
  <text x="294.0" y="915.2" font-size="9.8" fill="#333" dominant-baseline="central">The post data is completely processed.</text>
  <rect x="36.0" y="961.6" width="218" height="26" rx="13.0" ry="13.0" fill="#ffffff" stroke="#2f2f2f" stroke-width="1.15" filter="url(#ds)"/>
  <text x="145.0" y="974.6" font-size="9.6" fill="#1a1a1a" text-anchor="middle" dominant-baseline="central">onPreRender</text>
  <line x1="254.0" y1="974.6" x2="286.0" y2="974.6" stroke="#8a8a8a" stroke-width="0.9" stroke-dasharray="2.5 2"/>
  <path d="M286.0,946.6 H664.0 L674.0,956.6 V1002.6 H286.0 Z" fill="#fffdf3" stroke="#9a9a8f" stroke-width="0.9" filter="url(#ds)"/>
  <path d="M664.0,946.6 V956.6 H674.0" fill="none" stroke="#9a9a8f" stroke-width="0.9"/>
  <text x="294.0" y="962.0" font-size="9.8" fill="#333" dominant-baseline="central">preRenderRecursive() does the final preparation for rendering.</text>
  <text x="294.0" y="974.6" font-size="9.8" fill="#333" dominant-baseline="central">onPreRender is raised on every control. Usage: register postback controls</text>
  <text x="294.0" y="987.2" font-size="9.8" fill="#333" dominant-baseline="central">and validation controls.</text>
  <rect x="36.0" y="1021.0" width="218" height="26" rx="13.0" ry="13.0" fill="#c6e6c6" stroke="#2f2f2f" stroke-width="1.15" filter="url(#ds)"/>
  <text x="145.0" y="1034.0" font-size="9.6" fill="#1a1a1a" text-anchor="middle" dominant-baseline="central">onPreRenderComplete</text>
  <line x1="254.0" y1="1034.0" x2="286.0" y2="1034.0" stroke="#8a8a8a" stroke-width="0.9" stroke-dasharray="2.5 2"/>
  <path d="M286.0,1018.6 H664.0 L674.0,1028.6 V1049.4 H286.0 Z" fill="#fffdf3" stroke="#9a9a8f" stroke-width="0.9" filter="url(#ds)"/>
  <path d="M664.0,1018.6 V1028.6 H674.0" fill="none" stroke="#9a9a8f" stroke-width="0.9"/>
  <text x="294.0" y="1034.0" font-size="9.8" fill="#333" dominant-baseline="central">Preparation for rendering is complete.</text>
  <rect x="36.0" y="1074.1" width="218" height="26" rx="13.0" ry="13.0" fill="#ffffff" stroke="#2f2f2f" stroke-width="1.15" filter="url(#ds)"/>
  <text x="145.0" y="1087.1" font-size="9.6" fill="#1a1a1a" text-anchor="middle" dominant-baseline="central">onSaveState</text>
  <line x1="254.0" y1="1087.1" x2="286.0" y2="1087.1" stroke="#8a8a8a" stroke-width="0.9" stroke-dasharray="2.5 2"/>
  <path d="M286.0,1065.4 H664.0 L674.0,1075.4 V1108.8 H286.0 Z" fill="#fffdf3" stroke="#9a9a8f" stroke-width="0.9" filter="url(#ds)"/>
  <path d="M664.0,1065.4 V1075.4 H674.0" fill="none" stroke="#9a9a8f" stroke-width="0.9"/>
  <text x="294.0" y="1080.8" font-size="9.8" fill="#333" dominant-baseline="central">savePageState() saves the view state and the control state of the page</text>
  <text x="294.0" y="1093.4" font-size="9.8" fill="#333" dominant-baseline="central">hierarchy.</text>
  <rect x="36.0" y="1127.2" width="218" height="26" rx="13.0" ry="13.0" fill="#c6e6c6" stroke="#2f2f2f" stroke-width="1.15" filter="url(#ds)"/>
  <text x="145.0" y="1140.2" font-size="9.6" fill="#1a1a1a" text-anchor="middle" dominant-baseline="central">onSaveStateComplete</text>
  <line x1="254.0" y1="1140.2" x2="286.0" y2="1140.2" stroke="#8a8a8a" stroke-width="0.9" stroke-dasharray="2.5 2"/>
  <path d="M286.0,1124.8 H664.0 L674.0,1134.8 V1155.6 H286.0 Z" fill="#fffdf3" stroke="#9a9a8f" stroke-width="0.9" filter="url(#ds)"/>
  <path d="M664.0,1124.8 V1134.8 H674.0" fill="none" stroke="#9a9a8f" stroke-width="0.9"/>
  <text x="294.0" y="1140.2" font-size="9.8" fill="#333" dominant-baseline="central">The page state is saved.</text>
  <rect x="36.0" y="1186.6" width="218" height="26" rx="13.0" ry="13.0" fill="#ffffff" stroke="#2f2f2f" stroke-width="1.15" filter="url(#ds)"/>
  <text x="145.0" y="1199.6" font-size="9.2" fill="#1a1a1a" text-anchor="middle" dominant-baseline="central">renderControl / renderCallbackResponse</text>
  <line x1="254.0" y1="1199.6" x2="286.0" y2="1199.6" stroke="#8a8a8a" stroke-width="0.9" stroke-dasharray="2.5 2"/>
  <path d="M286.0,1171.6 H664.0 L674.0,1181.6 V1227.6 H286.0 Z" fill="#fffdf3" stroke="#9a9a8f" stroke-width="0.9" filter="url(#ds)"/>
  <path d="M664.0,1171.6 V1181.6 H674.0" fill="none" stroke="#9a9a8f" stroke-width="0.9"/>
  <text x="294.0" y="1187.0" font-size="9.8" fill="#333" dominant-baseline="central">The page hierarchy is rendered. renderControl() is invoked recursively on</text>
  <text x="294.0" y="1199.6" font-size="9.8" fill="#333" dominant-baseline="central">the controls. A callback renders only a partial response instead</text>
  <text x="294.0" y="1212.2" font-size="9.8" fill="#333" dominant-baseline="central">(renderCallbackResponse).</text>
  <rect x="36.0" y="1252.3" width="218" height="26" rx="13.0" ry="13.0" fill="#ffffff" stroke="#2f2f2f" stroke-width="1.15" filter="url(#ds)"/>
  <text x="145.0" y="1265.3" font-size="9.6" fill="#1a1a1a" text-anchor="middle" dominant-baseline="central">onUnload</text>
  <line x1="254.0" y1="1265.3" x2="286.0" y2="1265.3" stroke="#8a8a8a" stroke-width="0.9" stroke-dasharray="2.5 2"/>
  <path d="M286.0,1243.6 H664.0 L674.0,1253.6 V1287.0 H286.0 Z" fill="#fffdf3" stroke="#9a9a8f" stroke-width="0.9" filter="url(#ds)"/>
  <path d="M664.0,1243.6 V1253.6 H674.0" fill="none" stroke="#9a9a8f" stroke-width="0.9"/>
  <text x="294.0" y="1259.0" font-size="9.8" fill="#333" dominant-baseline="central">Unload the page and its hierarchy. onUnload is raised on every control.</text>
  <text x="294.0" y="1271.6" font-size="9.8" fill="#333" dominant-baseline="central">Usage: disconnect the database connection.</text>
  <line x1="145.0" y1="1278.3" x2="145.0" y2="1292.8" stroke="#2f2f2f" stroke-width="1.4"/>
  <circle cx="145.0" cy="1299.3" r="6.5" fill="none" stroke="#2f2f2f" stroke-width="1.6"/>
  <circle cx="145.0" cy="1299.3" r="3.2" fill="#2f2f2f"/>
</svg>